<mxfile host="app.diagrams.net" agent="Mozilla/5.0 (Windows NT 10.0; Win64; x64) AppleWebKit/537.36 (KHTML, like Gecko) Chrome/131.0.0.0 Safari/537.36" version="24.8.4">
  <diagram name="Page-1" id="XaHqY0cKbJ2PzJI0Trc0">
    <mxGraphModel dx="1434" dy="728" grid="1" gridSize="10" guides="1" tooltips="1" connect="1" arrows="1" fold="1" page="1" pageScale="1" pageWidth="827" pageHeight="1169" math="0" shadow="0">
      <root>
        <mxCell id="0" />
        <mxCell id="1" parent="0" />
        <mxCell id="6Vmg0UVMfuZmP9A7BD3x-80" value="" style="rounded=0;whiteSpace=wrap;html=1;fillColor=none;strokeWidth=3;dashed=1;" parent="1" vertex="1">
          <mxGeometry x="40" y="120" width="760" height="560" as="geometry" />
        </mxCell>
        <mxCell id="6Vmg0UVMfuZmP9A7BD3x-17" value="" style="edgeStyle=orthogonalEdgeStyle;rounded=0;orthogonalLoop=1;jettySize=auto;html=1;shape=link;" parent="1" source="6Vmg0UVMfuZmP9A7BD3x-2" target="6Vmg0UVMfuZmP9A7BD3x-3" edge="1">
          <mxGeometry relative="1" as="geometry" />
        </mxCell>
        <mxCell id="6Vmg0UVMfuZmP9A7BD3x-2" value="Call Market APIs" style="rounded=0;whiteSpace=wrap;html=1;" parent="1" vertex="1">
          <mxGeometry x="160" y="490" width="120" height="60" as="geometry" />
        </mxCell>
        <mxCell id="6Vmg0UVMfuZmP9A7BD3x-54" style="edgeStyle=orthogonalEdgeStyle;rounded=0;orthogonalLoop=1;jettySize=auto;html=1;exitX=1;exitY=0.5;exitDx=0;exitDy=0;entryX=0;entryY=0.5;entryDx=0;entryDy=0;" parent="1" source="6Vmg0UVMfuZmP9A7BD3x-3" target="6Vmg0UVMfuZmP9A7BD3x-5" edge="1">
          <mxGeometry relative="1" as="geometry" />
        </mxCell>
        <mxCell id="6Vmg0UVMfuZmP9A7BD3x-3" value="Ingest Data" style="rounded=0;whiteSpace=wrap;html=1;" parent="1" vertex="1">
          <mxGeometry x="160" y="410" width="120" height="60" as="geometry" />
        </mxCell>
        <mxCell id="6Vmg0UVMfuZmP9A7BD3x-5" value="Combine data based on unified schema" style="rounded=0;whiteSpace=wrap;html=1;" parent="1" vertex="1">
          <mxGeometry x="320" y="300" width="120" height="60" as="geometry" />
        </mxCell>
        <mxCell id="6Vmg0UVMfuZmP9A7BD3x-13" value="" style="edgeStyle=orthogonalEdgeStyle;rounded=0;orthogonalLoop=1;jettySize=auto;html=1;" parent="1" source="6Vmg0UVMfuZmP9A7BD3x-7" target="6Vmg0UVMfuZmP9A7BD3x-11" edge="1">
          <mxGeometry relative="1" as="geometry" />
        </mxCell>
        <mxCell id="6Vmg0UVMfuZmP9A7BD3x-7" value="MongoDB" style="shape=cylinder3;whiteSpace=wrap;html=1;boundedLbl=1;backgroundOutline=1;size=15;" parent="1" vertex="1">
          <mxGeometry x="350" y="480" width="60" height="80" as="geometry" />
        </mxCell>
        <mxCell id="6Vmg0UVMfuZmP9A7BD3x-8" style="edgeStyle=orthogonalEdgeStyle;rounded=0;orthogonalLoop=1;jettySize=auto;html=1;exitX=0.5;exitY=1;exitDx=0;exitDy=0;entryX=0.5;entryY=0;entryDx=0;entryDy=0;entryPerimeter=0;" parent="1" source="6Vmg0UVMfuZmP9A7BD3x-9" target="6Vmg0UVMfuZmP9A7BD3x-7" edge="1">
          <mxGeometry relative="1" as="geometry" />
        </mxCell>
        <mxCell id="6Vmg0UVMfuZmP9A7BD3x-10" value="" style="edgeStyle=orthogonalEdgeStyle;rounded=0;orthogonalLoop=1;jettySize=auto;html=1;exitX=0.5;exitY=1;exitDx=0;exitDy=0;entryX=0.5;entryY=0;entryDx=0;entryDy=0;entryPerimeter=0;" parent="1" source="6Vmg0UVMfuZmP9A7BD3x-5" target="6Vmg0UVMfuZmP9A7BD3x-9" edge="1">
          <mxGeometry relative="1" as="geometry">
            <mxPoint x="430" y="380" as="sourcePoint" />
            <mxPoint x="430" y="480" as="targetPoint" />
          </mxGeometry>
        </mxCell>
        <mxCell id="6Vmg0UVMfuZmP9A7BD3x-9" value="Write to Database" style="rounded=0;whiteSpace=wrap;html=1;" parent="1" vertex="1">
          <mxGeometry x="320" y="400" width="120" height="40" as="geometry" />
        </mxCell>
        <mxCell id="6Vmg0UVMfuZmP9A7BD3x-15" value="" style="edgeStyle=orthogonalEdgeStyle;rounded=0;orthogonalLoop=1;jettySize=auto;html=1;" parent="1" source="6Vmg0UVMfuZmP9A7BD3x-11" target="6Vmg0UVMfuZmP9A7BD3x-14" edge="1">
          <mxGeometry relative="1" as="geometry" />
        </mxCell>
        <mxCell id="6Vmg0UVMfuZmP9A7BD3x-47" style="edgeStyle=orthogonalEdgeStyle;rounded=0;orthogonalLoop=1;jettySize=auto;html=1;exitX=0.5;exitY=0;exitDx=0;exitDy=0;entryX=0.25;entryY=1;entryDx=0;entryDy=0;" parent="1" source="6Vmg0UVMfuZmP9A7BD3x-11" target="6Vmg0UVMfuZmP9A7BD3x-18" edge="1">
          <mxGeometry relative="1" as="geometry" />
        </mxCell>
        <mxCell id="6Vmg0UVMfuZmP9A7BD3x-11" value="Cache to Redis&amp;nbsp;" style="rounded=0;whiteSpace=wrap;html=1;" parent="1" vertex="1">
          <mxGeometry x="470" y="500" width="120" height="40" as="geometry" />
        </mxCell>
        <mxCell id="6Vmg0UVMfuZmP9A7BD3x-12" value="&lt;font style=&quot;font-size: 11px;&quot;&gt;Internal DB (RW)&lt;/font&gt;" style="text;html=1;align=center;verticalAlign=middle;whiteSpace=wrap;rounded=0;" parent="1" vertex="1">
          <mxGeometry x="337.5" y="558" width="85" height="30" as="geometry" />
        </mxCell>
        <mxCell id="6Vmg0UVMfuZmP9A7BD3x-50" style="edgeStyle=orthogonalEdgeStyle;rounded=0;orthogonalLoop=1;jettySize=auto;html=1;exitX=1;exitY=0.5;exitDx=0;exitDy=0;exitPerimeter=0;entryX=0;entryY=0.5;entryDx=0;entryDy=0;" parent="1" source="6Vmg0UVMfuZmP9A7BD3x-14" target="6Vmg0UVMfuZmP9A7BD3x-39" edge="1">
          <mxGeometry relative="1" as="geometry">
            <Array as="points">
              <mxPoint x="730" y="520" />
              <mxPoint x="730" y="600" />
              <mxPoint x="110" y="600" />
              <mxPoint x="110" y="230" />
            </Array>
          </mxGeometry>
        </mxCell>
        <mxCell id="6Vmg0UVMfuZmP9A7BD3x-56" style="edgeStyle=orthogonalEdgeStyle;rounded=0;orthogonalLoop=1;jettySize=auto;html=1;exitX=0.5;exitY=0;exitDx=0;exitDy=0;exitPerimeter=0;entryX=0.5;entryY=1;entryDx=0;entryDy=0;" parent="1" source="6Vmg0UVMfuZmP9A7BD3x-14" target="6Vmg0UVMfuZmP9A7BD3x-18" edge="1">
          <mxGeometry relative="1" as="geometry" />
        </mxCell>
        <mxCell id="6Vmg0UVMfuZmP9A7BD3x-14" value="Redis DB" style="shape=cylinder3;whiteSpace=wrap;html=1;boundedLbl=1;backgroundOutline=1;size=15;" parent="1" vertex="1">
          <mxGeometry x="650" y="480" width="60" height="80" as="geometry" />
        </mxCell>
        <mxCell id="6Vmg0UVMfuZmP9A7BD3x-16" value="&lt;font style=&quot;font-size: 11px;&quot;&gt;Access DB (R)&lt;/font&gt;" style="text;html=1;align=center;verticalAlign=middle;whiteSpace=wrap;rounded=0;" parent="1" vertex="1">
          <mxGeometry x="600" y="554" width="71" height="30" as="geometry" />
        </mxCell>
        <mxCell id="6Vmg0UVMfuZmP9A7BD3x-42" style="edgeStyle=orthogonalEdgeStyle;rounded=0;orthogonalLoop=1;jettySize=auto;html=1;entryX=0.25;entryY=1;entryDx=0;entryDy=0;" parent="1" source="6Vmg0UVMfuZmP9A7BD3x-18" target="6Vmg0UVMfuZmP9A7BD3x-30" edge="1">
          <mxGeometry relative="1" as="geometry">
            <Array as="points">
              <mxPoint x="490" y="350" />
              <mxPoint x="490" y="350" />
            </Array>
          </mxGeometry>
        </mxCell>
        <mxCell id="6Vmg0UVMfuZmP9A7BD3x-18" value="Get Newly Cached Data" style="rounded=0;whiteSpace=wrap;html=1;" parent="1" vertex="1">
          <mxGeometry x="470" y="400" width="130" height="40" as="geometry" />
        </mxCell>
        <mxCell id="6Vmg0UVMfuZmP9A7BD3x-31" value="" style="edgeStyle=orthogonalEdgeStyle;rounded=0;orthogonalLoop=1;jettySize=auto;html=1;" parent="1" source="6Vmg0UVMfuZmP9A7BD3x-20" target="6Vmg0UVMfuZmP9A7BD3x-30" edge="1">
          <mxGeometry relative="1" as="geometry" />
        </mxCell>
        <mxCell id="6Vmg0UVMfuZmP9A7BD3x-49" value="" style="edgeStyle=orthogonalEdgeStyle;rounded=0;orthogonalLoop=1;jettySize=auto;html=1;" parent="1" source="6Vmg0UVMfuZmP9A7BD3x-20" target="6Vmg0UVMfuZmP9A7BD3x-48" edge="1">
          <mxGeometry relative="1" as="geometry" />
        </mxCell>
        <mxCell id="6Vmg0UVMfuZmP9A7BD3x-20" value="API Gateway" style="rounded=0;whiteSpace=wrap;html=1;" parent="1" vertex="1">
          <mxGeometry x="620" y="300" width="120" height="60" as="geometry" />
        </mxCell>
        <mxCell id="6Vmg0UVMfuZmP9A7BD3x-24" value="" style="edgeStyle=orthogonalEdgeStyle;rounded=0;orthogonalLoop=1;jettySize=auto;html=1;" parent="1" source="6Vmg0UVMfuZmP9A7BD3x-23" target="6Vmg0UVMfuZmP9A7BD3x-20" edge="1">
          <mxGeometry relative="1" as="geometry" />
        </mxCell>
        <mxCell id="6Vmg0UVMfuZmP9A7BD3x-23" value="&lt;b&gt;START&lt;/b&gt;&lt;br&gt;User Makes Request" style="rounded=1;whiteSpace=wrap;html=1;" parent="1" vertex="1">
          <mxGeometry x="620" y="200" width="120" height="60" as="geometry" />
        </mxCell>
        <mxCell id="6Vmg0UVMfuZmP9A7BD3x-26" value="1" style="ellipse;whiteSpace=wrap;html=1;aspect=fixed;" parent="1" vertex="1">
          <mxGeometry x="685.5" y="270" width="20" height="20" as="geometry" />
        </mxCell>
        <mxCell id="6Vmg0UVMfuZmP9A7BD3x-36" value="" style="edgeStyle=orthogonalEdgeStyle;rounded=0;orthogonalLoop=1;jettySize=auto;html=1;" parent="1" source="6Vmg0UVMfuZmP9A7BD3x-30" target="6Vmg0UVMfuZmP9A7BD3x-35" edge="1">
          <mxGeometry relative="1" as="geometry" />
        </mxCell>
        <mxCell id="6Vmg0UVMfuZmP9A7BD3x-43" style="edgeStyle=orthogonalEdgeStyle;rounded=0;orthogonalLoop=1;jettySize=auto;html=1;exitX=1;exitY=0.5;exitDx=0;exitDy=0;entryX=0;entryY=0.25;entryDx=0;entryDy=0;" parent="1" source="6Vmg0UVMfuZmP9A7BD3x-30" target="6Vmg0UVMfuZmP9A7BD3x-20" edge="1">
          <mxGeometry relative="1" as="geometry" />
        </mxCell>
        <mxCell id="6Vmg0UVMfuZmP9A7BD3x-30" value="Retreive data" style="whiteSpace=wrap;html=1;rounded=0;" parent="1" vertex="1">
          <mxGeometry x="460" y="200" width="120" height="60" as="geometry" />
        </mxCell>
        <mxCell id="6Vmg0UVMfuZmP9A7BD3x-32" value="2" style="ellipse;whiteSpace=wrap;html=1;aspect=fixed;" parent="1" vertex="1">
          <mxGeometry x="530" y="280" width="20" height="20" as="geometry" />
        </mxCell>
        <mxCell id="6Vmg0UVMfuZmP9A7BD3x-40" value="" style="edgeStyle=orthogonalEdgeStyle;rounded=0;orthogonalLoop=1;jettySize=auto;html=1;" parent="1" source="6Vmg0UVMfuZmP9A7BD3x-35" target="6Vmg0UVMfuZmP9A7BD3x-39" edge="1">
          <mxGeometry relative="1" as="geometry" />
        </mxCell>
        <mxCell id="6Vmg0UVMfuZmP9A7BD3x-45" style="edgeStyle=orthogonalEdgeStyle;rounded=0;orthogonalLoop=1;jettySize=auto;html=1;exitX=0.5;exitY=1;exitDx=0;exitDy=0;entryX=0.5;entryY=0;entryDx=0;entryDy=0;" parent="1" source="6Vmg0UVMfuZmP9A7BD3x-52" target="6Vmg0UVMfuZmP9A7BD3x-3" edge="1">
          <mxGeometry relative="1" as="geometry">
            <Array as="points">
              <mxPoint x="220" y="280" />
            </Array>
          </mxGeometry>
        </mxCell>
        <mxCell id="6Vmg0UVMfuZmP9A7BD3x-35" value="Check Cached Data" style="rhombus;whiteSpace=wrap;html=1;rounded=0;" parent="1" vertex="1">
          <mxGeometry x="290" y="190" width="130" height="80" as="geometry" />
        </mxCell>
        <mxCell id="6Vmg0UVMfuZmP9A7BD3x-41" style="edgeStyle=orthogonalEdgeStyle;rounded=0;orthogonalLoop=1;jettySize=auto;html=1;exitX=0.5;exitY=0;exitDx=0;exitDy=0;entryX=0.5;entryY=0;entryDx=0;entryDy=0;" parent="1" source="6Vmg0UVMfuZmP9A7BD3x-39" target="6Vmg0UVMfuZmP9A7BD3x-30" edge="1">
          <mxGeometry relative="1" as="geometry" />
        </mxCell>
        <mxCell id="6Vmg0UVMfuZmP9A7BD3x-39" value="Get Cached Data" style="whiteSpace=wrap;html=1;rounded=0;" parent="1" vertex="1">
          <mxGeometry x="130" y="200" width="120" height="60" as="geometry" />
        </mxCell>
        <mxCell id="6Vmg0UVMfuZmP9A7BD3x-44" value="YES" style="text;html=1;align=center;verticalAlign=middle;whiteSpace=wrap;rounded=0;" parent="1" vertex="1">
          <mxGeometry x="246" y="208" width="60" height="30" as="geometry" />
        </mxCell>
        <mxCell id="6Vmg0UVMfuZmP9A7BD3x-46" value="NO" style="text;html=1;align=center;verticalAlign=middle;whiteSpace=wrap;rounded=0;" parent="1" vertex="1">
          <mxGeometry x="260" y="258" width="60" height="30" as="geometry" />
        </mxCell>
        <mxCell id="6Vmg0UVMfuZmP9A7BD3x-48" value="&lt;b&gt;END&lt;/b&gt;&lt;br&gt;User Recieves Response" style="rounded=1;whiteSpace=wrap;html=1;" parent="1" vertex="1">
          <mxGeometry x="615" y="390" width="130" height="60" as="geometry" />
        </mxCell>
        <mxCell id="6Vmg0UVMfuZmP9A7BD3x-51" style="edgeStyle=orthogonalEdgeStyle;rounded=0;orthogonalLoop=1;jettySize=auto;html=1;exitX=0.5;exitY=0;exitDx=0;exitDy=0;entryX=0.5;entryY=1;entryDx=0;entryDy=0;entryPerimeter=0;" parent="1" source="6Vmg0UVMfuZmP9A7BD3x-35" target="6Vmg0UVMfuZmP9A7BD3x-14" edge="1">
          <mxGeometry relative="1" as="geometry">
            <Array as="points">
              <mxPoint x="355" y="160" />
              <mxPoint x="80" y="160" />
              <mxPoint x="80" y="590" />
              <mxPoint x="680" y="590" />
            </Array>
          </mxGeometry>
        </mxCell>
        <mxCell id="6Vmg0UVMfuZmP9A7BD3x-53" value="" style="edgeStyle=orthogonalEdgeStyle;rounded=0;orthogonalLoop=1;jettySize=auto;html=1;exitX=0.5;exitY=1;exitDx=0;exitDy=0;entryX=0.5;entryY=0;entryDx=0;entryDy=0;" parent="1" source="6Vmg0UVMfuZmP9A7BD3x-35" target="6Vmg0UVMfuZmP9A7BD3x-52" edge="1">
          <mxGeometry relative="1" as="geometry">
            <mxPoint x="355" y="270" as="sourcePoint" />
            <mxPoint x="220" y="390" as="targetPoint" />
            <Array as="points">
              <mxPoint x="355" y="280" />
            </Array>
          </mxGeometry>
        </mxCell>
        <mxCell id="6Vmg0UVMfuZmP9A7BD3x-57" style="edgeStyle=orthogonalEdgeStyle;rounded=0;orthogonalLoop=1;jettySize=auto;html=1;exitX=0;exitY=0.5;exitDx=0;exitDy=0;entryX=0.5;entryY=1;entryDx=0;entryDy=0;" parent="1" source="6Vmg0UVMfuZmP9A7BD3x-52" target="6Vmg0UVMfuZmP9A7BD3x-11" edge="1">
          <mxGeometry relative="1" as="geometry">
            <Array as="points">
              <mxPoint x="135" y="330" />
              <mxPoint x="135" y="620" />
              <mxPoint x="530" y="620" />
            </Array>
          </mxGeometry>
        </mxCell>
        <mxCell id="6Vmg0UVMfuZmP9A7BD3x-52" value="Check Internal DB" style="rhombus;whiteSpace=wrap;html=1;rounded=0;" parent="1" vertex="1">
          <mxGeometry x="155" y="290" width="130" height="80" as="geometry" />
        </mxCell>
        <mxCell id="6Vmg0UVMfuZmP9A7BD3x-55" value="NO" style="text;html=1;align=center;verticalAlign=middle;whiteSpace=wrap;rounded=0;" parent="1" vertex="1">
          <mxGeometry x="204" y="370" width="60" height="30" as="geometry" />
        </mxCell>
        <mxCell id="6Vmg0UVMfuZmP9A7BD3x-58" value="YES" style="text;html=1;align=center;verticalAlign=middle;whiteSpace=wrap;rounded=0;" parent="1" vertex="1">
          <mxGeometry x="120" y="370" width="60" height="30" as="geometry" />
        </mxCell>
        <mxCell id="6Vmg0UVMfuZmP9A7BD3x-59" value="3" style="ellipse;whiteSpace=wrap;html=1;aspect=fixed;" parent="1" vertex="1">
          <mxGeometry x="422.5" y="208" width="20" height="20" as="geometry" />
        </mxCell>
        <mxCell id="6Vmg0UVMfuZmP9A7BD3x-60" value="4" style="ellipse;whiteSpace=wrap;html=1;aspect=fixed;" parent="1" vertex="1">
          <mxGeometry x="264" y="190" width="20" height="20" as="geometry" />
        </mxCell>
        <mxCell id="6Vmg0UVMfuZmP9A7BD3x-61" value="5" style="ellipse;whiteSpace=wrap;html=1;aspect=fixed;" parent="1" vertex="1">
          <mxGeometry x="380" y="158" width="20" height="20" as="geometry" />
        </mxCell>
        <mxCell id="6Vmg0UVMfuZmP9A7BD3x-62" value="6" style="ellipse;whiteSpace=wrap;html=1;aspect=fixed;" parent="1" vertex="1">
          <mxGeometry x="280" y="284" width="20" height="20" as="geometry" />
        </mxCell>
        <mxCell id="6Vmg0UVMfuZmP9A7BD3x-63" value="7" style="ellipse;whiteSpace=wrap;html=1;aspect=fixed;" parent="1" vertex="1">
          <mxGeometry x="137" y="470" width="20" height="20" as="geometry" />
        </mxCell>
        <mxCell id="6Vmg0UVMfuZmP9A7BD3x-64" value="8" style="ellipse;whiteSpace=wrap;html=1;aspect=fixed;" parent="1" vertex="1">
          <mxGeometry x="197" y="375" width="20" height="20" as="geometry" />
        </mxCell>
        <mxCell id="6Vmg0UVMfuZmP9A7BD3x-68" value="9" style="ellipse;whiteSpace=wrap;html=1;aspect=fixed;" parent="1" vertex="1">
          <mxGeometry x="278" y="376" width="20" height="20" as="geometry" />
        </mxCell>
        <mxCell id="6Vmg0UVMfuZmP9A7BD3x-70" value="10" style="ellipse;whiteSpace=wrap;html=1;aspect=fixed;" parent="1" vertex="1">
          <mxGeometry x="387" y="371" width="20" height="20" as="geometry" />
        </mxCell>
        <mxCell id="6Vmg0UVMfuZmP9A7BD3x-71" value="11" style="ellipse;whiteSpace=wrap;html=1;aspect=fixed;" parent="1" vertex="1">
          <mxGeometry x="387" y="450" width="20" height="20" as="geometry" />
        </mxCell>
        <mxCell id="6Vmg0UVMfuZmP9A7BD3x-72" value="12" style="ellipse;whiteSpace=wrap;html=1;aspect=fixed;" parent="1" vertex="1">
          <mxGeometry x="428.5" y="497" width="20" height="20" as="geometry" />
        </mxCell>
        <mxCell id="6Vmg0UVMfuZmP9A7BD3x-73" value="13" style="ellipse;whiteSpace=wrap;html=1;aspect=fixed;" parent="1" vertex="1">
          <mxGeometry x="500" y="477" width="20" height="20" as="geometry" />
        </mxCell>
        <mxCell id="6Vmg0UVMfuZmP9A7BD3x-74" value="14" style="ellipse;whiteSpace=wrap;html=1;aspect=fixed;" parent="1" vertex="1">
          <mxGeometry x="500" y="355" width="20" height="20" as="geometry" />
        </mxCell>
        <mxCell id="6Vmg0UVMfuZmP9A7BD3x-75" value="15" style="ellipse;whiteSpace=wrap;html=1;aspect=fixed;" parent="1" vertex="1">
          <mxGeometry x="590" y="204" width="20" height="20" as="geometry" />
        </mxCell>
        <mxCell id="6Vmg0UVMfuZmP9A7BD3x-77" value="16" style="ellipse;whiteSpace=wrap;html=1;aspect=fixed;" parent="1" vertex="1">
          <mxGeometry x="686" y="365" width="20" height="20" as="geometry" />
        </mxCell>
      </root>
    </mxGraphModel>
  </diagram>
</mxfile>
